<svg width="64" height="64" viewBox="0 0 64 64" fill="none" xmlns="http://www.w3.org/2000/svg">
<rect width="64" height="64" fill="#D5D5D5"/>
<path d="M18.6661 15C15.3322 15 7.82597 22.5225 5.33263 31C3.86343 35.9954 5.33277 44.3333 5.33277 44.3333C5.33277 45.6667 6.6661 47 7.99943 47H10.6661C12 47 15.3328 45.6667 15.3328 44.3333C15.3328 44.3333 13.4697 37.3925 15.3326 33.6667C16.6499 31.0321 18.6661 28.3333 18.6661 28.3333V55C18.6661 56.3333 19.9994 57.6667 21.3328 57.6667H42.6661C43.9994 57.6667 45.3328 56.3333 45.3328 55L45.3326 28.3333C45.3326 28.3333 47.3488 31.0321 48.6661 33.6667C50.529 37.3925 48.6661 44.3333 48.6661 44.3333C48.6661 45.6667 52 47 53.3328 47H55.9994C57.3328 47 58.6661 45.6667 58.6661 44.3333C58.6661 44.3333 60.1352 35.9954 58.666 31C56.1726 22.5226 48.6653 15 45.3326 15H39.9994C39.555 16.7778 37.3328 20.3333 31.9994 20.3333C26.6661 20.3333 24.4439 16.7778 23.9994 15H18.6661Z" fill="#BFBFBF" stroke="#9F9F9F" stroke-width="3" stroke-linejoin="round"/>
<path d="M21.3333 12.3333C21.3333 13.6667 22.6666 15 23.9998 15C24.4442 16.7778 26.6665 20.3333 31.9998 20.3333C37.3331 20.3333 39.5553 16.7778 39.9998 15C41.3333 15 42.6666 13.6667 42.6666 12.3333C42.6666 8.77778 40.5331 7 31.9998 7C23.4665 7 21.3333 8.77778 21.3333 12.3333Z" fill="#808080" stroke="#9F9F9F" stroke-width="3" stroke-linejoin="round"/>
<path d="M25.5 27.3333C25.5 28.1617 26.1716 28.8333 27 28.8333C27.8284 28.8333 28.5 28.1617 28.5 27.3333H25.5ZM25.5 19.3333V27.3333H28.5V19.3333H25.5Z" fill="#9F9F9F"/>
<path d="M35.5 30C35.5 30.8284 36.1716 31.5 37 31.5C37.8284 31.5 38.5 30.8284 38.5 30H35.5ZM35.5 19.3333V30H38.5V19.3333H35.5Z" fill="#9F9F9F"/>
<path d="M30.5 57C30.5 57.8284 31.1716 58.5 32 58.5C32.8284 58.5 33.5 57.8284 33.5 57H30.5ZM30.5 21V57H33.5V21H30.5Z" fill="#9F9F9F"/>
<path d="M24 52.3333L26.6667 44.3333H37.3333L40 52.3333H24Z" fill="#808080" stroke="#9F9F9F" stroke-width="3" stroke-linejoin="round"/>
</svg>
