<svg width="64" height="64" viewBox="0 0 64 64" fill="none" xmlns="http://www.w3.org/2000/svg">
<rect width="64" height="64" fill="#D5D5D5"/>
<path d="M21.3333 11.0272C14.3594 11.4371 5.33325 19.0221 5.33325 19.0221L10.6666 31.0144L18.6666 27.017V51.0017C18.6666 52.3342 19.9999 53.6667 21.3333 53.6667H42.6666C43.9999 53.6667 45.3333 52.3342 45.3333 51.0017V27.017L53.3333 31.0144L58.6666 19.0221C58.6666 19.0221 49.6404 11.4371 42.6666 11.0272C41.627 10.966 39.9999 11.0272 39.9999 11.0272C39.5555 12.8038 37.3333 16.3571 31.9999 16.3571C26.6666 16.3571 24.4444 12.8038 23.9999 11.0272C23.9999 11.0272 22.3729 10.966 21.3333 11.0272Z" fill="#BFBFBF" stroke="#9F9F9F" stroke-width="3" stroke-linejoin="round"/>
</svg>
