<svg width="239" height="64" viewBox="0 0 239 64" fill="none" xmlns="http://www.w3.org/2000/svg">
<path d="M11.7875 31.432C9.79553 31.432 7.86353 31.168 5.99153 30.64C4.14353 30.088 2.65553 29.38 1.52753 28.516L3.50753 24.124C4.58753 24.916 5.87153 25.552 7.35953 26.032C8.84753 26.512 10.3355 26.752 11.8235 26.752C13.4795 26.752 14.7035 26.512 15.4955 26.032C16.2875 25.528 16.6835 24.868 16.6835 24.052C16.6835 23.452 16.4435 22.96 15.9635 22.576C15.5075 22.168 14.9075 21.844 14.1635 21.604C13.4435 21.364 12.4595 21.1 11.2115 20.812C9.29153 20.356 7.71953 19.9 6.49553 19.444C5.27153 18.988 4.21553 18.256 3.32753 17.248C2.46353 16.24 2.03153 14.896 2.03153 13.216C2.03153 11.752 2.42753 10.432 3.21953 9.256C4.01153 8.056 5.19953 7.108 6.78353 6.412C8.39153 5.716 10.3475 5.368 12.6515 5.368C14.2595 5.368 15.8315 5.56 17.3675 5.944C18.9035 6.328 20.2475 6.88 21.3995 7.6L19.5995 12.028C17.2715 10.708 14.9435 10.048 12.6155 10.048C10.9835 10.048 9.77153 10.312 8.97953 10.84C8.21153 11.368 7.82753 12.064 7.82753 12.928C7.82753 13.792 8.27153 14.44 9.15953 14.872C10.0715 15.28 11.4515 15.688 13.2995 16.096C15.2195 16.552 16.7915 17.008 18.0155 17.464C19.2395 17.92 20.2835 18.64 21.1475 19.624C22.0355 20.608 22.4795 21.94 22.4795 23.62C22.4795 25.06 22.0715 26.38 21.2555 27.58C20.4635 28.756 19.2635 29.692 17.6555 30.388C16.0475 31.084 14.0915 31.432 11.7875 31.432ZM45.7246 11.632V31H40.3606V28.768C38.9686 30.448 36.9526 31.288 34.3126 31.288C32.4886 31.288 30.8326 30.88 29.3446 30.064C27.8806 29.248 26.7286 28.084 25.8886 26.572C25.0486 25.06 24.6286 23.308 24.6286 21.316C24.6286 19.324 25.0486 17.572 25.8886 16.06C26.7286 14.548 27.8806 13.384 29.3446 12.568C30.8326 11.752 32.4886 11.344 34.3126 11.344C36.7846 11.344 38.7166 12.124 40.1086 13.684V11.632H45.7246ZM35.2846 26.68C36.7006 26.68 37.8766 26.2 38.8126 25.24C39.7486 24.256 40.2166 22.948 40.2166 21.316C40.2166 19.684 39.7486 18.388 38.8126 17.428C37.8766 16.444 36.7006 15.952 35.2846 15.952C33.8446 15.952 32.6566 16.444 31.7206 17.428C30.7846 18.388 30.3166 19.684 30.3166 21.316C30.3166 22.948 30.7846 24.256 31.7206 25.24C32.6566 26.2 33.8446 26.68 35.2846 26.68ZM62.588 30.064C62.036 30.472 61.352 30.784 60.536 31C59.744 31.192 58.916 31.288 58.052 31.288C55.724 31.288 53.936 30.7 52.688 29.524C51.44 28.348 50.816 26.62 50.816 24.34V7.348H56.432V12.064H61.22V16.384H56.432V24.268C56.432 25.084 56.636 25.72 57.044 26.176C57.452 26.608 58.04 26.824 58.808 26.824C59.672 26.824 60.44 26.584 61.112 26.104L62.588 30.064ZM84.8183 11.632V31H79.4543V28.768C78.0623 30.448 76.0463 31.288 73.4063 31.288C71.5823 31.288 69.9263 30.88 68.4383 30.064C66.9743 29.248 65.8223 28.084 64.9823 26.572C64.1423 25.06 63.7223 23.308 63.7223 21.316C63.7223 19.324 64.1423 17.572 64.9823 16.06C65.8223 14.548 66.9743 13.384 68.4383 12.568C69.9263 11.752 71.5823 11.344 73.4063 11.344C75.8783 11.344 77.8103 12.124 79.2023 13.684V11.632H84.8183ZM74.3783 26.68C75.7943 26.68 76.9703 26.2 77.9063 25.24C78.8423 24.256 79.3103 22.948 79.3103 21.316C79.3103 19.684 78.8423 18.388 77.9063 17.428C76.9703 16.444 75.7943 15.952 74.3783 15.952C72.9383 15.952 71.7503 16.444 70.8143 17.428C69.8783 18.388 69.4103 19.684 69.4103 21.316C69.4103 22.948 69.8783 24.256 70.8143 25.24C71.7503 26.2 72.9383 26.68 74.3783 26.68ZM101.79 11.344C104.19 11.344 106.122 12.064 107.586 13.504C109.074 14.944 109.818 17.08 109.818 19.912V31H104.202V20.776C104.202 19.24 103.866 18.1 103.194 17.356C102.522 16.588 101.55 16.204 100.278 16.204C98.8618 16.204 97.7338 16.648 96.8938 17.536C96.0538 18.4 95.6338 19.696 95.6338 21.424V31H90.0178V11.632H95.3818V13.9C96.1258 13.084 97.0498 12.46 98.1538 12.028C99.2578 11.572 100.47 11.344 101.79 11.344ZM114.908 11.632H120.524V31H114.908V11.632ZM117.716 8.932C116.684 8.932 115.844 8.632 115.196 8.032C114.548 7.432 114.224 6.688 114.224 5.8C114.224 4.912 114.548 4.168 115.196 3.568C115.844 2.968 116.684 2.668 117.716 2.668C118.748 2.668 119.588 2.956 120.236 3.532C120.884 4.108 121.208 4.828 121.208 5.692C121.208 6.628 120.884 7.408 120.236 8.032C119.588 8.632 118.748 8.932 117.716 8.932ZM145.393 11.632V31H140.029V28.768C138.637 30.448 136.621 31.288 133.981 31.288C132.157 31.288 130.501 30.88 129.013 30.064C127.549 29.248 126.397 28.084 125.557 26.572C124.717 25.06 124.297 23.308 124.297 21.316C124.297 19.324 124.717 17.572 125.557 16.06C126.397 14.548 127.549 13.384 129.013 12.568C130.501 11.752 132.157 11.344 133.981 11.344C136.453 11.344 138.385 12.124 139.777 13.684V11.632H145.393ZM134.953 26.68C136.369 26.68 137.545 26.2 138.481 25.24C139.417 24.256 139.885 22.948 139.885 21.316C139.885 19.684 139.417 18.388 138.481 17.428C137.545 16.444 136.369 15.952 134.953 15.952C133.513 15.952 132.325 16.444 131.389 17.428C130.453 18.388 129.985 19.684 129.985 21.316C129.985 22.948 130.453 24.256 131.389 25.24C132.325 26.2 133.513 26.68 134.953 26.68Z" fill="#EF3340"/>
<path d="M68.9792 59L68.9512 44.72L61.8672 56.62H60.5792L53.4952 44.804V59H50.8072V39.4H53.1032L61.2792 53.176L69.3432 39.4H71.6392L71.6672 59H68.9792ZM82.5614 44.02C84.6147 44.02 86.1827 44.524 87.2654 45.532C88.3667 46.54 88.9174 48.0427 88.9174 50.04V59H86.3694V57.04C85.9214 57.7307 85.2774 58.2627 84.4374 58.636C83.616 58.9907 82.636 59.168 81.4974 59.168C79.836 59.168 78.5014 58.7667 77.4934 57.964C76.504 57.1613 76.0094 56.1067 76.0094 54.8C76.0094 53.4933 76.4854 52.448 77.4374 51.664C78.3894 50.8613 79.9014 50.46 81.9734 50.46H86.2294V49.928C86.2294 48.7707 85.8934 47.884 85.2214 47.268C84.5494 46.652 83.56 46.344 82.2534 46.344C81.376 46.344 80.5174 46.4933 79.6774 46.792C78.8374 47.072 78.128 47.4547 77.5494 47.94L76.4294 45.924C77.1947 45.308 78.1094 44.8413 79.1734 44.524C80.2374 44.188 81.3667 44.02 82.5614 44.02ZM81.9454 57.096C82.972 57.096 83.8587 56.872 84.6054 56.424C85.352 55.9573 85.8934 55.304 86.2294 54.464V52.392H82.0854C79.808 52.392 78.6694 53.1573 78.6694 54.688C78.6694 55.4347 78.9587 56.0227 79.5374 56.452C80.116 56.8813 80.9187 57.096 81.9454 57.096ZM96.4678 46.652C96.9344 45.7933 97.6251 45.14 98.5397 44.692C99.4544 44.244 100.565 44.02 101.872 44.02V46.624C101.722 46.6053 101.517 46.596 101.256 46.596C99.7998 46.596 98.6518 47.0347 97.8118 47.912C96.9904 48.7707 96.5798 50.0027 96.5798 51.608V59H93.8918V44.16H96.4678V46.652ZM110.953 52.084L107.873 54.94V59H105.185V38.224H107.873V51.552L115.965 44.16H119.213L112.969 50.292L119.829 59H116.525L110.953 52.084ZM135.222 51.664C135.222 51.8693 135.203 52.14 135.166 52.476H123.126C123.294 53.7827 123.863 54.8373 124.834 55.64C125.823 56.424 127.046 56.816 128.502 56.816C130.275 56.816 131.703 56.2187 132.786 55.024L134.27 56.76C133.598 57.544 132.758 58.1413 131.75 58.552C130.76 58.9627 129.65 59.168 128.418 59.168C126.85 59.168 125.459 58.8507 124.246 58.216C123.032 57.5627 122.09 56.6573 121.418 55.5C120.764 54.3427 120.438 53.036 120.438 51.58C120.438 50.1427 120.755 48.8453 121.39 47.688C122.043 46.5307 122.93 45.6347 124.05 45C125.188 44.3467 126.467 44.02 127.886 44.02C129.304 44.02 130.564 44.3467 131.666 45C132.786 45.6347 133.654 46.5307 134.27 47.688C134.904 48.8453 135.222 50.1707 135.222 51.664ZM127.886 46.288C126.598 46.288 125.515 46.68 124.638 47.464C123.779 48.248 123.275 49.2747 123.126 50.544H132.646C132.496 49.2933 131.983 48.276 131.106 47.492C130.247 46.6893 129.174 46.288 127.886 46.288ZM147.298 58.132C146.906 58.468 146.421 58.7293 145.842 58.916C145.264 59.084 144.666 59.168 144.05 59.168C142.557 59.168 141.4 58.7667 140.578 57.964C139.757 57.1613 139.346 56.0133 139.346 54.52V46.372H136.826V44.16H139.346V40.912H142.034V44.16H146.29V46.372H142.034V54.408C142.034 55.2107 142.23 55.8267 142.622 56.256C143.033 56.6853 143.612 56.9 144.358 56.9C145.18 56.9 145.88 56.6667 146.458 56.2L147.298 58.132Z" fill="#EF8D33"/>
<path d="M178.232 54.248V59H159.188V55.22L168.908 46.04C169.94 45.056 170.636 44.216 170.996 43.52C171.356 42.8 171.536 42.092 171.536 41.396C171.536 40.388 171.188 39.62 170.492 39.092C169.82 38.54 168.824 38.264 167.504 38.264C166.4 38.264 165.404 38.48 164.516 38.912C163.628 39.32 162.884 39.944 162.284 40.784L158.036 38.048C159.02 36.584 160.376 35.444 162.104 34.628C163.832 33.788 165.812 33.368 168.044 33.368C169.916 33.368 171.548 33.68 172.94 34.304C174.356 34.904 175.448 35.768 176.216 36.896C177.008 38 177.404 39.308 177.404 40.82C177.404 42.188 177.116 43.472 176.54 44.672C175.964 45.872 174.848 47.24 173.192 48.776L167.396 54.248H178.232ZM191.368 59.432C189.28 59.432 187.42 58.916 185.788 57.884C184.156 56.852 182.872 55.364 181.936 53.42C181.024 51.452 180.568 49.112 180.568 46.4C180.568 43.688 181.024 41.36 181.936 39.416C182.872 37.448 184.156 35.948 185.788 34.916C187.42 33.884 189.28 33.368 191.368 33.368C193.456 33.368 195.316 33.884 196.948 34.916C198.58 35.948 199.852 37.448 200.764 39.416C201.7 41.36 202.168 43.688 202.168 46.4C202.168 49.112 201.7 51.452 200.764 53.42C199.852 55.364 198.58 56.852 196.948 57.884C195.316 58.916 193.456 59.432 191.368 59.432ZM191.368 54.5C192.904 54.5 194.104 53.84 194.968 52.52C195.856 51.2 196.3 49.16 196.3 46.4C196.3 43.64 195.856 41.6 194.968 40.28C194.104 38.96 192.904 38.3 191.368 38.3C189.856 38.3 188.656 38.96 187.768 40.28C186.904 41.6 186.472 43.64 186.472 46.4C186.472 49.16 186.904 51.2 187.768 52.52C188.656 53.84 189.856 54.5 191.368 54.5ZM223.619 54.248V59H204.575V55.22L214.295 46.04C215.327 45.056 216.023 44.216 216.383 43.52C216.743 42.8 216.923 42.092 216.923 41.396C216.923 40.388 216.575 39.62 215.879 39.092C215.207 38.54 214.211 38.264 212.891 38.264C211.787 38.264 210.791 38.48 209.903 38.912C209.015 39.32 208.271 39.944 207.671 40.784L203.423 38.048C204.407 36.584 205.763 35.444 207.491 34.628C209.219 33.788 211.199 33.368 213.431 33.368C215.303 33.368 216.935 33.68 218.327 34.304C219.743 34.904 220.835 35.768 221.603 36.896C222.395 38 222.791 39.308 222.791 40.82C222.791 42.188 222.503 43.472 221.927 44.672C221.351 45.872 220.235 47.24 218.579 48.776L212.783 54.248H223.619ZM235.745 33.8V59H229.913V38.48H224.873V33.8H235.745Z" fill="#EF3340"/>
</svg>
