<svg width="165" height="42" viewBox="0 0 165 42" fill="none" xmlns="http://www.w3.org/2000/svg">
<path d="M8.19169 21.288C6.86369 21.288 5.57569 21.112 4.32769 20.76C3.09569 20.392 2.10369 19.92 1.35169 19.344L2.67169 16.416C3.39169 16.944 4.24769 17.368 5.23969 17.688C6.23169 18.008 7.22369 18.168 8.21569 18.168C9.31969 18.168 10.1357 18.008 10.6637 17.688C11.1917 17.352 11.4557 16.912 11.4557 16.368C11.4557 15.968 11.2957 15.64 10.9757 15.384C10.6717 15.112 10.2717 14.896 9.77569 14.736C9.29569 14.576 8.63969 14.4 7.80769 14.208C6.52769 13.904 5.47969 13.6 4.66369 13.296C3.84769 12.992 3.14369 12.504 2.55169 11.832C1.97569 11.16 1.68769 10.264 1.68769 9.144C1.68769 8.168 1.95169 7.288 2.47969 6.504C3.00769 5.704 3.79969 5.072 4.85569 4.608C5.92769 4.144 7.23169 3.912 8.76769 3.912C9.83969 3.912 10.8877 4.04 11.9117 4.296C12.9357 4.552 13.8317 4.92 14.5997 5.4L13.3997 8.352C11.8477 7.472 10.2957 7.032 8.74369 7.032C7.65569 7.032 6.84769 7.208 6.31969 7.56C5.80769 7.912 5.55169 8.376 5.55169 8.952C5.55169 9.528 5.84769 9.96 6.43969 10.248C7.04769 10.52 7.96769 10.792 9.19969 11.064C10.4797 11.368 11.5277 11.672 12.3437 11.976C13.1597 12.28 13.8557 12.76 14.4317 13.416C15.0237 14.072 15.3197 14.96 15.3197 16.08C15.3197 17.04 15.0477 17.92 14.5037 18.72C13.9757 19.504 13.1757 20.128 12.1037 20.592C11.0317 21.056 9.72769 21.288 8.19169 21.288ZM30.8164 8.088V21H27.2404V19.512C26.3124 20.632 24.9684 21.192 23.2084 21.192C21.9924 21.192 20.8884 20.92 19.8964 20.376C18.9204 19.832 18.1524 19.056 17.5924 18.048C17.0324 17.04 16.7524 15.872 16.7524 14.544C16.7524 13.216 17.0324 12.048 17.5924 11.04C18.1524 10.032 18.9204 9.256 19.8964 8.712C20.8884 8.168 21.9924 7.896 23.2084 7.896C24.8564 7.896 26.1444 8.416 27.0724 9.456V8.088H30.8164ZM23.8564 18.12C24.8004 18.12 25.5844 17.8 26.2084 17.16C26.8324 16.504 27.1444 15.632 27.1444 14.544C27.1444 13.456 26.8324 12.592 26.2084 11.952C25.5844 11.296 24.8004 10.968 23.8564 10.968C22.8964 10.968 22.1044 11.296 21.4804 11.952C20.8564 12.592 20.5444 13.456 20.5444 14.544C20.5444 15.632 20.8564 16.504 21.4804 17.16C22.1044 17.8 22.8964 18.12 23.8564 18.12ZM42.0587 20.376C41.6907 20.648 41.2347 20.856 40.6907 21C40.1627 21.128 39.6107 21.192 39.0347 21.192C37.4827 21.192 36.2907 20.8 35.4587 20.016C34.6267 19.232 34.2107 18.08 34.2107 16.56V5.232H37.9547V8.376H41.1467V11.256H37.9547V16.512C37.9547 17.056 38.0907 17.48 38.3627 17.784C38.6347 18.072 39.0267 18.216 39.5387 18.216C40.1147 18.216 40.6267 18.056 41.0747 17.736L42.0587 20.376ZM56.8789 8.088V21H53.3029V19.512C52.3749 20.632 51.0309 21.192 49.2709 21.192C48.0549 21.192 46.9509 20.92 45.9589 20.376C44.9829 19.832 44.2149 19.056 43.6549 18.048C43.0949 17.04 42.8149 15.872 42.8149 14.544C42.8149 13.216 43.0949 12.048 43.6549 11.04C44.2149 10.032 44.9829 9.256 45.9589 8.712C46.9509 8.168 48.0549 7.896 49.2709 7.896C50.9189 7.896 52.2069 8.416 53.1349 9.456V8.088H56.8789ZM49.9189 18.12C50.8629 18.12 51.6469 17.8 52.2709 17.16C52.8949 16.504 53.2069 15.632 53.2069 14.544C53.2069 13.456 52.8949 12.592 52.2709 11.952C51.6469 11.296 50.8629 10.968 49.9189 10.968C48.9589 10.968 48.1669 11.296 47.5429 11.952C46.9189 12.592 46.6069 13.456 46.6069 14.544C46.6069 15.632 46.9189 16.504 47.5429 17.16C48.1669 17.8 48.9589 18.12 49.9189 18.12ZM68.1932 7.896C69.7932 7.896 71.0812 8.376 72.0572 9.336C73.0492 10.296 73.5452 11.72 73.5452 13.608V21H69.8012V14.184C69.8012 13.16 69.5772 12.4 69.1292 11.904C68.6812 11.392 68.0332 11.136 67.1852 11.136C66.2412 11.136 65.4892 11.432 64.9292 12.024C64.3692 12.6 64.0892 13.464 64.0892 14.616V21H60.3452V8.088H63.9212V9.6C64.4172 9.056 65.0332 8.64 65.7692 8.352C66.5052 8.048 67.3132 7.896 68.1932 7.896ZM76.9389 8.088H80.6829V21H76.9389V8.088ZM78.8109 6.288C78.1229 6.288 77.5629 6.088 77.1309 5.688C76.6989 5.288 76.4829 4.792 76.4829 4.2C76.4829 3.608 76.6989 3.112 77.1309 2.712C77.5629 2.312 78.1229 2.112 78.8109 2.112C79.4989 2.112 80.0589 2.304 80.4909 2.688C80.9229 3.072 81.1389 3.552 81.1389 4.128C81.1389 4.752 80.9229 5.272 80.4909 5.688C80.0589 6.088 79.4989 6.288 78.8109 6.288ZM97.2617 8.088V21H93.6857V19.512C92.7577 20.632 91.4137 21.192 89.6537 21.192C88.4377 21.192 87.3337 20.92 86.3417 20.376C85.3657 19.832 84.5977 19.056 84.0377 18.048C83.4777 17.04 83.1977 15.872 83.1977 14.544C83.1977 13.216 83.4777 12.048 84.0377 11.04C84.5977 10.032 85.3657 9.256 86.3417 8.712C87.3337 8.168 88.4377 7.896 89.6537 7.896C91.3017 7.896 92.5897 8.416 93.5177 9.456V8.088H97.2617ZM90.3017 18.12C91.2457 18.12 92.0297 17.8 92.6537 17.16C93.2777 16.504 93.5897 15.632 93.5897 14.544C93.5897 13.456 93.2777 12.592 92.6537 11.952C92.0297 11.296 91.2457 10.968 90.3017 10.968C89.3417 10.968 88.5497 11.296 87.9257 11.952C87.3017 12.592 86.9897 13.456 86.9897 14.544C86.9897 15.632 87.3017 16.504 87.9257 17.16C88.5497 17.8 89.3417 18.12 90.3017 18.12ZM48.2009 39L48.1829 29.82L43.6289 37.47H42.8009L38.2469 29.874V39H36.5189V26.4H37.9949L43.2509 35.256L48.4349 26.4H49.9109L49.9289 39H48.2009ZM56.9323 29.37C58.2523 29.37 59.2603 29.694 59.9563 30.342C60.6643 30.99 61.0183 31.956 61.0183 33.24V39H59.3803V37.74C59.0923 38.184 58.6783 38.526 58.1383 38.766C57.6103 38.994 56.9803 39.108 56.2483 39.108C55.1803 39.108 54.3223 38.85 53.6743 38.334C53.0383 37.818 52.7203 37.14 52.7203 36.3C52.7203 35.46 53.0263 34.788 53.6383 34.284C54.2503 33.768 55.2223 33.51 56.5543 33.51H59.2903V33.168C59.2903 32.424 59.0743 31.854 58.6423 31.458C58.2103 31.062 57.5743 30.864 56.7343 30.864C56.1703 30.864 55.6183 30.96 55.0783 31.152C54.5383 31.332 54.0823 31.578 53.7103 31.89L52.9903 30.594C53.4823 30.198 54.0703 29.898 54.7543 29.694C55.4383 29.478 56.1643 29.37 56.9323 29.37ZM56.5363 37.776C57.1963 37.776 57.7663 37.632 58.2463 37.344C58.7263 37.044 59.0743 36.624 59.2903 36.084V34.752H56.6263C55.1623 34.752 54.4303 35.244 54.4303 36.228C54.4303 36.708 54.6163 37.086 54.9883 37.362C55.3603 37.638 55.8763 37.776 56.5363 37.776ZM65.8721 31.062C66.1721 30.51 66.6161 30.09 67.2041 29.802C67.7921 29.514 68.5061 29.37 69.3461 29.37V31.044C69.2501 31.032 69.1181 31.026 68.9501 31.026C68.0141 31.026 67.2761 31.308 66.7361 31.872C66.2081 32.424 65.9441 33.216 65.9441 34.248V39H64.2161V29.46H65.8721V31.062ZM75.1839 34.554L73.2039 36.39V39H71.4759V25.644H73.2039V34.212L78.4059 29.46H80.4939L76.4799 33.402L80.8899 39H78.7659L75.1839 34.554ZM90.7854 34.284C90.7854 34.416 90.7734 34.59 90.7494 34.806H83.0094C83.1174 35.646 83.4834 36.324 84.1074 36.84C84.7434 37.344 85.5294 37.596 86.4654 37.596C87.6054 37.596 88.5234 37.212 89.2194 36.444L90.1734 37.56C89.7414 38.064 89.2014 38.448 88.5534 38.712C87.9174 38.976 87.2034 39.108 86.4114 39.108C85.4034 39.108 84.5094 38.904 83.7294 38.496C82.9494 38.076 82.3434 37.494 81.9114 36.75C81.4914 36.006 81.2814 35.166 81.2814 34.23C81.2814 33.306 81.4854 32.472 81.8934 31.728C82.3134 30.984 82.8834 30.408 83.6034 30C84.3354 29.58 85.1574 29.37 86.0694 29.37C86.9814 29.37 87.7914 29.58 88.4994 30C89.2194 30.408 89.7774 30.984 90.1734 31.728C90.5814 32.472 90.7854 33.324 90.7854 34.284ZM86.0694 30.828C85.2414 30.828 84.5454 31.08 83.9814 31.584C83.4294 32.088 83.1054 32.748 83.0094 33.564H89.1294C89.0334 32.76 88.7034 32.106 88.1394 31.602C87.5874 31.086 86.8974 30.828 86.0694 30.828ZM98.5489 38.442C98.2969 38.658 97.9849 38.826 97.6129 38.946C97.2409 39.054 96.8569 39.108 96.4609 39.108C95.5009 39.108 94.7569 38.85 94.2289 38.334C93.7009 37.818 93.4369 37.08 93.4369 36.12V30.882H91.8169V29.46H93.4369V27.372H95.1649V29.46H97.9009V30.882H95.1649V36.048C95.1649 36.564 95.2909 36.96 95.5429 37.236C95.8069 37.512 96.1789 37.65 96.6589 37.65C97.1869 37.65 97.6369 37.5 98.0089 37.2L98.5489 38.442Z" fill="white"/>
<path d="M117.832 35.832V39H105.136V36.48L111.616 30.36C112.304 29.704 112.768 29.144 113.008 28.68C113.248 28.2 113.368 27.728 113.368 27.264C113.368 26.592 113.136 26.08 112.672 25.728C112.224 25.36 111.56 25.176 110.68 25.176C109.944 25.176 109.28 25.32 108.688 25.608C108.096 25.88 107.6 26.296 107.2 26.856L104.368 25.032C105.024 24.056 105.928 23.296 107.08 22.752C108.232 22.192 109.552 21.912 111.04 21.912C112.288 21.912 113.376 22.12 114.304 22.536C115.248 22.936 115.976 23.512 116.488 24.264C117.016 25 117.28 25.872 117.28 26.88C117.28 27.792 117.088 28.648 116.704 29.448C116.32 30.248 115.576 31.16 114.472 32.184L110.608 35.832H117.832ZM126.589 39.288C125.197 39.288 123.957 38.944 122.869 38.256C121.781 37.568 120.925 36.576 120.301 35.28C119.693 33.968 119.389 32.408 119.389 30.6C119.389 28.792 119.693 27.24 120.301 25.944C120.925 24.632 121.781 23.632 122.869 22.944C123.957 22.256 125.197 21.912 126.589 21.912C127.981 21.912 129.221 22.256 130.309 22.944C131.397 23.632 132.245 24.632 132.853 25.944C133.477 27.24 133.789 28.792 133.789 30.6C133.789 32.408 133.477 33.968 132.853 35.28C132.245 36.576 131.397 37.568 130.309 38.256C129.221 38.944 127.981 39.288 126.589 39.288ZM126.589 36C127.613 36 128.413 35.56 128.989 34.68C129.581 33.8 129.877 32.44 129.877 30.6C129.877 28.76 129.581 27.4 128.989 26.52C128.413 25.64 127.613 25.2 126.589 25.2C125.581 25.2 124.781 25.64 124.189 26.52C123.613 27.4 123.325 28.76 123.325 30.6C123.325 32.44 123.613 33.8 124.189 34.68C124.781 35.56 125.581 36 126.589 36ZM148.09 35.832V39H135.394V36.48L141.874 30.36C142.562 29.704 143.026 29.144 143.266 28.68C143.506 28.2 143.626 27.728 143.626 27.264C143.626 26.592 143.394 26.08 142.93 25.728C142.482 25.36 141.818 25.176 140.938 25.176C140.202 25.176 139.538 25.32 138.946 25.608C138.354 25.88 137.858 26.296 137.458 26.856L134.626 25.032C135.282 24.056 136.186 23.296 137.338 22.752C138.49 22.192 139.81 21.912 141.298 21.912C142.546 21.912 143.634 22.12 144.562 22.536C145.506 22.936 146.234 23.512 146.746 24.264C147.274 25 147.538 25.872 147.538 26.88C147.538 27.792 147.346 28.648 146.962 29.448C146.578 30.248 145.834 31.16 144.73 32.184L140.866 35.832H148.09ZM156.847 39.288C155.455 39.288 154.215 38.944 153.127 38.256C152.039 37.568 151.183 36.576 150.559 35.28C149.951 33.968 149.647 32.408 149.647 30.6C149.647 28.792 149.951 27.24 150.559 25.944C151.183 24.632 152.039 23.632 153.127 22.944C154.215 22.256 155.455 21.912 156.847 21.912C158.239 21.912 159.479 22.256 160.567 22.944C161.655 23.632 162.503 24.632 163.111 25.944C163.735 27.24 164.047 28.792 164.047 30.6C164.047 32.408 163.735 33.968 163.111 35.28C162.503 36.576 161.655 37.568 160.567 38.256C159.479 38.944 158.239 39.288 156.847 39.288ZM156.847 36C157.871 36 158.671 35.56 159.247 34.68C159.839 33.8 160.135 32.44 160.135 30.6C160.135 28.76 159.839 27.4 159.247 26.52C158.671 25.64 157.871 25.2 156.847 25.2C155.839 25.2 155.039 25.64 154.447 26.52C153.871 27.4 153.583 28.76 153.583 30.6C153.583 32.44 153.871 33.8 154.447 34.68C155.039 35.56 155.839 36 156.847 36Z" fill="white"/>
</svg>
